<svg width="14" height="14" viewBox="0 0 14 14" fill="none" xmlns="http://www.w3.org/2000/svg">
<path d="M11.9412 2.05882C9.19608 -0.686275 4.75817 -0.686275 2.05882 2.05882C-0.686275 4.80392 -0.686275 9.24183 2.05882 11.9412C4.80392 14.6863 9.24183 14.6863 11.9412 11.9412C14.6863 9.19608 14.6863 4.80392 11.9412 2.05882ZM10.2941 10.0196C10.3856 10.1111 10.3856 10.2484 10.2941 10.3399C10.2484 10.3856 10.2026 10.3856 10.1569 10.3856C10.1111 10.3856 10.0654 10.3856 10.0196 10.3399L7 7.32026L3.98039 10.3399C3.93464 10.3856 3.88889 10.3856 3.84314 10.3856C3.79739 10.3856 3.75163 10.3856 3.70588 10.3399C3.61438 10.2484 3.61438 10.1111 3.70588 10.0196L6.72549 7L3.70588 3.98039C3.61438 3.88889 3.61438 3.75163 3.70588 3.66013C3.79739 3.56863 3.93464 3.56863 4.02614 3.66013L7.04575 6.67974L10.0654 3.66013C10.1569 3.56863 10.2941 3.56863 10.3856 3.66013C10.4771 3.75163 10.4771 3.88889 10.3856 3.98039L7.32026 7L10.2941 10.0196Z" fill="black"/>
</svg>
