<svg width="14" height="14" viewBox="0 0 14 14" fill="none" xmlns="http://www.w3.org/2000/svg">
<path d="M6.97859 14C5.0948 14 3.33945 13.2722 2.05505 11.945C-0.685015 9.20489 -0.685015 4.79511 2.05505 2.05505C4.79511 -0.685015 9.20489 -0.685015 11.945 2.05505C13.2722 3.38226 14 5.13761 14 6.97859C14 8.86239 13.2722 10.6177 11.945 11.9021C10.6177 13.2722 8.86239 14 6.97859 14ZM6.97859 0.727829C5.35168 0.727829 3.76758 1.32722 2.52599 2.56881C0.0856272 5.00917 0.0856272 9.03364 2.52599 11.474C3.72477 12.6728 5.30887 13.315 6.97859 13.315C8.64832 13.315 10.2324 12.6728 11.4312 11.474C12.63 10.2752 13.2722 8.69113 13.2722 7.02141C13.2722 5.35168 12.63 3.76758 11.4312 2.56881C10.1896 1.32722 8.6055 0.727829 6.97859 0.727829Z" fill="black"/>
<path d="M3.98166 10.3609C3.89603 10.3609 3.81041 10.318 3.72478 10.2752C3.59634 10.1468 3.59634 9.93272 3.72478 9.80428L9.71866 3.8104C9.8471 3.68196 10.0612 3.68196 10.1896 3.8104C10.3181 3.93884 10.3181 4.1529 10.1896 4.28134L4.19573 10.2752C4.15291 10.318 4.06729 10.3609 3.98166 10.3609Z" fill="black"/>
<path d="M9.97554 10.3609C9.88992 10.3609 9.80429 10.318 9.71866 10.2752L3.72478 4.28134C3.59634 4.1529 3.59634 3.93884 3.72478 3.8104C3.85322 3.68196 4.06729 3.68196 4.19573 3.8104L10.1896 9.80428C10.3181 9.93272 10.3181 10.1468 10.1896 10.2752C10.1468 10.318 10.0612 10.3609 9.97554 10.3609Z" fill="black"/>
</svg>
